<?xml version="1.0" encoding="UTF-8" standalone="no"?>
<!-- Created with Inkscape (http://www.inkscape.org/) -->
<svg xmlns:dc="http://purl.org/dc/elements/1.1/" xmlns:cc="http://creativecommons.org/ns#" xmlns:rdf="http://www.w3.org/1999/02/22-rdf-syntax-ns#" xmlns:svg="http://www.w3.org/2000/svg" xmlns="http://www.w3.org/2000/svg" xmlns:sodipodi="http://sodipodi.sourceforge.net/DTD/sodipodi-0.dtd" xmlns:inkscape="http://www.inkscape.org/namespaces/inkscape" width="273.46399" height="54.988998" id="svg2" version="1.1" inkscape:version="0.48.4 r9939" sodipodi:docname="white.svg">
  <defs id="defs4"/>
  <sodipodi:namedview id="base" pagecolor="#ffffff" bordercolor="#666666" borderopacity="1.0" inkscape:pageopacity="0.0" inkscape:pageshadow="2" inkscape:zoom="2.7909483" inkscape:cx="123.07022" inkscape:cy="10.742379" inkscape:document-units="px" inkscape:current-layer="layer1" showgrid="false" inkscape:window-width="1090" inkscape:window-height="733" inkscape:window-x="368" inkscape:window-y="150" inkscape:window-maximized="0" fit-margin-top="0" fit-margin-left="0" fit-margin-right="0" fit-margin-bottom="0"/>
  <metadata id="metadata7">
    <rdf:RDF>
      <cc:Work rdf:about="">
        <dc:format>image/svg+xml</dc:format>
        <dc:type rdf:resource="http://purl.org/dc/dcmitype/StillImage"/>
        <dc:title/>
      </cc:Work>
    </rdf:RDF>
  </metadata>
  <g inkscape:label="Calque 1" inkscape:groupmode="layer" id="layer1" transform="translate(-8.35835,-9.544133)">
    <g id="dark_1_" transform="translate(-12.64265,-17.960867)">
      <g id="NET___CENTRE_1_">
        <path id="path2988" d="m 41.323,40.539 h -5.644 v 18.434 l -0.12,0.04 -8.874,-18.474 h -5.684 v 28.922 h 5.684 V 51.007 l 0.12,-0.04 8.875,18.494 h 5.644 V 40.539 z" inkscape:connector-curvature="0" style="fill:#ffffff"/>
        <path id="path2990" d="m 62.917,52.259 h -9.752 v -7.211 h 11.427 v -4.509 h -17.11 v 28.922 h 17.15 V 64.952 H 53.166 v -8.185 h 9.752 v -4.508 z" inkscape:connector-curvature="0" style="fill:#ffffff"/>
        <path id="path2992" d="M 87.407,40.539 H 68.701 v 4.509 h 6.501 v 24.413 h 5.664 V 45.048 h 6.542 v -4.509 z" inkscape:connector-curvature="0" style="fill:#ffffff"/>
        <path id="path2994" d="m 170.903,60.145 c 0.066,1.907 -0.169,3.255 -0.708,4.043 -0.539,0.788 -1.492,1.182 -2.861,1.182 -1.396,0 -2.457,-0.497 -3.182,-1.491 -0.725,-0.994 -1.086,-2.512 -1.086,-4.554 v -8.688 c 0,-2.015 0.338,-3.52 1.017,-4.514 0.678,-0.994 1.655,-1.491 2.932,-1.491 1.489,0 2.532,0.418 3.131,1.256 0.599,0.838 0.857,2.207 0.778,4.107 h 5.464 l 0.06,-0.119 c -0.053,-3.218 -0.867,-5.648 -2.443,-7.29 -1.575,-1.642 -3.905,-2.463 -6.989,-2.463 -2.911,0 -5.235,0.924 -6.97,2.771 -1.735,1.848 -2.604,4.447 -2.604,7.797 v 8.641 c 0,3.364 0.898,5.963 2.693,7.797 1.795,1.834 4.193,2.751 7.199,2.751 3.004,0 5.277,-0.808 6.82,-2.423 1.542,-1.616 2.3,-4.013 2.273,-7.191 l -0.061,-0.119 h -5.463 z" inkscape:connector-curvature="0" style="fill:#ffffff"/>
        <path id="path2996" d="m 197.007,52.259 h -9.752 v -7.211 h 11.428 v -4.509 h -17.111 v 28.922 h 17.151 v -4.509 h -11.468 v -8.185 h 9.752 v -4.508 z" inkscape:connector-curvature="0" style="fill:#ffffff"/>
        <path id="path2998" d="m 223.939,40.539 h -5.643 v 18.434 l -0.119,0.04 -8.875,-18.474 h -5.684 v 28.922 h 5.684 V 51.007 l 0.119,-0.04 8.875,18.494 h 5.643 V 40.539 z" inkscape:connector-curvature="0" style="fill:#ffffff"/>
        <path id="path3000" d="m 247.469,40.539 h -18.707 v 4.509 h 6.502 v 24.413 h 5.662 V 45.048 h 6.543 v -4.509 z" inkscape:connector-curvature="0" style="fill:#ffffff"/>
        <path id="path3002" d="m 262.033,57.96 c 1.104,0 1.951,0.397 2.543,1.191 0.592,0.795 0.889,1.914 0.889,3.357 v 1.967 c 0,0.993 0.059,1.966 0.178,2.92 0.121,0.953 0.412,1.642 0.879,2.065 h 5.863 v -0.417 c -0.467,-0.41 -0.791,-1.069 -0.979,-1.977 -0.186,-0.907 -0.279,-1.758 -0.279,-2.553 v -2.046 c 0,-1.748 -0.328,-3.204 -0.986,-4.37 -0.658,-1.165 -1.732,-1.999 -3.221,-2.503 1.303,-0.648 2.293,-1.52 2.971,-2.612 0.678,-1.093 1.018,-2.394 1.018,-3.903 0,-2.675 -0.814,-4.764 -2.443,-6.267 -1.629,-1.503 -3.871,-2.255 -6.73,-2.255 h -9.473 v 28.902 h 5.664 V 57.96 h 4.106 z m -4.107,-12.892 h 3.809 c 1.145,0 2.014,0.391 2.613,1.172 0.598,0.782 0.896,1.834 0.896,3.159 0,1.298 -0.299,2.297 -0.896,3 -0.6,0.702 -1.477,1.053 -2.633,1.053 h -3.789 v -8.384 z" inkscape:connector-curvature="0" style="fill:#ffffff"/>
        <path id="path3004" d="m 292.75,52.259 h -9.752 v -7.211 h 11.428 v -4.509 h -17.111 v 28.922 h 17.15 v -4.509 h -11.467 v -8.185 h 9.752 v -4.508 z" inkscape:connector-curvature="0" style="fill:#ffffff"/>
      </g>
      <g id="g3006">
        <g id="g3008">
          <path id="path3010" d="m 120.462,34.143 c -13.488,0.361 -24.307,11.045 -24.307,24.171 0,13.354 11.199,24.18 25.013,24.18 13.814,0 25.014,-10.826 25.014,-24.18 0,-5.452 -1.867,-10.483 -5.016,-14.527 0,0 -1.879,6.575 -2.958,9.929 0.397,1.427 0.608,2.926 0.608,4.475 0,9.49 -7.958,17.184 -17.776,17.184 -9.818,0 -17.776,-7.693 -17.776,-17.184 0,-9.303 7.647,-16.879 17.196,-17.175 0.001,-2.944 0.002,-6.873 0.002,-6.873 z" clip-rule="evenodd" inkscape:connector-curvature="0" style="fill:#25b2f3;fill-rule:evenodd"/>
          <path id="path3012" d="m 123.834,27.505 h 14.729 v 14.116 l -3.202,10.433 h -5.443 l 1.244,-10.433 h -7.327 V 27.505 z" clip-rule="evenodd" inkscape:connector-curvature="0" style="fill:#25b2f3;fill-rule:evenodd"/>
        </g>
      </g>
    </g>
  </g>
</svg>